<svg width="160" height="160" viewBox="0 0 160 160" fill="none" xmlns="http://www.w3.org/2000/svg">
  <rect width="160" height="160" rx="36" fill="#101827"/>
  <rect x="8" y="8" width="144" height="144" rx="30" fill="url(#paint0_linear_92_18)"/>
  <circle cx="80" cy="61" r="24" fill="#F0C7A4"/>
  <path d="M56 125C56 109.536 68.536 97 84 97H87C101.912 97 114 109.088 114 124V127H56V125Z" fill="#E8ECF9"/>
  <path d="M60 49C60 35.7452 70.7452 25 84 25C97.2548 25 108 35.7452 108 49V57H60V49Z" fill="#161616"/>
  <path d="M55 59C55 45.1929 66.1929 34 80 34H87C100.807 34 112 45.1929 112 59V73H55V59Z" fill="#1C1C1C"/>
  <path d="M65 41C72.0421 33.5537 82.6947 30.8928 92.3804 34.1452C102.066 37.3976 108.8 46.0107 110 56.1596C103.801 54.7958 97.3827 54.7289 91.157 55.9635C84.9313 57.198 79.0279 59.7057 73.8255 63.3252C70.3983 65.7094 67.3387 68.579 64.7513 71.8445C62.3055 67.3947 61.1281 62.3615 61.3449 57.2872C61.5617 52.2129 63.1642 47.2974 66 43.0833L65 41Z" fill="#161616"/>
  <rect x="36" y="121" width="88" height="12" rx="6" fill="rgba(255,255,255,0.08)"/>
  <defs>
    <linearGradient id="paint0_linear_92_18" x1="20" y1="18" x2="140" y2="146" gradientUnits="userSpaceOnUse">
      <stop stop-color="#1A2332"/>
      <stop offset="1" stop-color="#2262F0"/>
    </linearGradient>
  </defs>
</svg>
