<svg width="717" height="718" viewBox="0 0 717 718" fill="none" xmlns="http://www.w3.org/2000/svg">
<path d="M698.83 245.72C697.69 242.29 696.5 238.89 695.27 235.51C696.51 238.89 697.7 242.29 698.83 245.72Z" fill="black" stroke="black" stroke-miterlimit="10"/>
<path d="M717.04 358.84C717.04 374.6 716.02 390.11 714.05 405.33C709.86 437.74 701.33 468.79 689.08 497.89C688.72 498.74 688.36 499.59 687.99 500.44C672.97 535.35 652.57 567.4 627.82 595.54C617.3 607.51 605.99 618.76 593.98 629.24C565.81 653.8 533.76 674.03 498.87 688.89C497.47 689.49 496.07 690.07 494.66 690.65C466.03 702.42 435.55 710.58 403.77 714.59C388.93 716.47 373.8 717.43 358.45 717.43C341.56 717.43 324.93 716.26 308.66 714C278.49 709.81 249.52 701.86 222.24 690.65C219.32 689.45 216.43 688.22 213.56 686.94C178.55 671.47 146.49 650.55 118.45 625.26C108.09 615.93 98.29 606.01 89.09 595.54H229.27C253.69 608.9 280.4 618.58 308.66 623.86C324.8 626.87 341.44 628.45 358.45 628.45C373.9 628.45 389.04 627.15 403.77 624.65C433.69 619.59 461.93 609.6 487.63 595.54C491.44 593.46 495.18 591.29 498.87 589.04C535.06 566.92 565.62 536.51 587.92 500.44C590.02 497.05 592.04 493.62 593.98 490.13C608.47 464.21 618.8 435.64 624.06 405.33H698.12C699.33 405.33 700.32 404.34 700.32 403.13V256.7C700.32 253.88 700.11 251.1 699.71 248.39C699.99 249.26 700.27 250.13 700.54 251C701.09 252.73 701.62 254.48 702.14 256.22C702.38 257.02 702.61 257.81 702.84 258.6C703.95 262.42 705 266.26 705.98 270.13C706.25 271.19 706.51 272.25 706.77 273.31C707.32 275.53 707.84 277.76 708.34 279.99C708.56 280.96 708.77 281.94 708.98 282.92C709.22 283.99 709.44 285.06 709.66 286.14C709.88 287.21 710.1 288.29 710.31 289.37C710.41 289.89 710.51 290.42 710.61 290.94C710.86 292.21 711.1 293.48 711.32 294.75C711.54 295.97 711.76 297.2 711.97 298.42C712.34 300.62 712.69 302.82 713.03 305.03C713.29 306.76 713.53 308.49 713.77 310.23C715.93 326.13 717.04 342.35 717.04 358.84Z" fill="black" stroke="black" stroke-miterlimit="10"/>
<path d="M501.07 500.44C500.34 501.16 499.61 501.87 498.87 502.58V500.44H501.07Z" stroke="black" stroke-miterlimit="10"/>
<path d="M169.23 361.14C168.25 368.85 167.74 376.71 167.74 384.69V383.6C167.74 375.98 168.25 368.49 169.23 361.14Z" fill="black" stroke="black" stroke-miterlimit="10"/>
<path d="M89.35 342.29C89.01 347.76 88.84 353.28 88.84 358.84C88.84 374.69 90.21 390.23 92.84 405.33C94.51 414.97 96.7 424.42 99.37 433.67V475.93H357.06C374.6 475.93 390.79 470.09 403.77 460.26C417.48 449.88 427.62 435.04 432.04 417.91C433.1 413.84 433.83 409.63 434.19 405.33H549.91C548.7 412.91 547 420.32 544.83 427.54C536.47 455.46 521.22 480.42 501.07 500.44H498.87V502.58C473.39 527.02 440.43 543.73 403.77 548.92C395.77 550.06 387.59 550.65 379.27 550.65H55.43C45.32 534.72 36.44 517.94 28.92 500.44C26.96 495.92 25.11 491.35 23.35 486.73C13.48 460.9 6.51999 433.63 2.85999 405.33C0.889985 390.11 -0.130005 374.6 -0.130005 358.84C-0.130005 343.08 0.980015 326.13 3.14001 310.23C6.87001 282.69 13.73 256.14 23.35 230.95C25.38 225.61 27.55 220.33 29.83 215.12C45.14 180.15 65.87 148.1 90.97 120.02C99.62 110.33 108.79 101.11 118.45 92.42C146.49 67.13 178.55 46.21 213.56 30.74C218.16 28.7 222.81 26.75 227.51 24.91C253.24 14.81 280.43 7.59999 308.66 3.67999C324.93 1.41999 341.56 0.25 358.45 0.25C373.8 0.25 388.93 1.21 403.77 3.09C433.61 6.85 462.31 14.28 489.4 24.91C492.58 26.16 495.74 27.45 498.87 28.79C533.76 43.65 565.81 63.88 593.98 88.44C605.28 98.3 615.96 108.84 625.94 120.02C635.79 131.05 644.98 142.69 653.42 154.89H534.77C523.58 145.19 511.57 136.41 498.87 128.64C493.91 125.61 488.85 122.74 483.68 120.02C459.05 107.08 432.17 97.83 403.77 93.03C389.04 90.53 373.9 89.23 358.45 89.23C341.44 89.23 324.8 90.81 308.66 93.82C281.91 98.81 256.55 107.76 233.22 120.02C226.49 123.56 219.93 127.37 213.56 131.44C180.02 152.85 151.54 181.47 130.31 215.12C126.06 221.85 122.1 228.78 118.45 235.89C111.95 248.54 106.43 261.76 101.98 275.47C101.07 278.29 100.19 281.13 99.37 283.98C96.89 292.56 94.83 301.32 93.21 310.23C91.3 320.71 90 331.41 89.35 342.29Z" fill="black" stroke="black" stroke-miterlimit="10"/>
<path d="M552.09 342.29V377.84C552.09 387.2 551.35 396.38 549.91 405.33H434.19C434.4 403.08 434.5 400.8 434.5 398.49V342.29H552.09Z" fill="black" stroke="black" stroke-miterlimit="10"/>
<path d="M115.53 475.93H99.37V433.67C103.58 448.31 109.01 462.43 115.53 475.93Z" fill="black" stroke="black" stroke-miterlimit="10"/>
<path d="M434.5 342.29H282.82V345.52H434.5V342.29Z" fill="black" stroke="black" stroke-miterlimit="10"/>
<path d="M184.52 310.23C179.59 320.39 175.66 331.12 172.84 342.29C171.39 348.06 170.23 353.95 169.39 359.94C170.18 353.96 171.27 348.07 172.63 342.29C175.23 331.18 178.84 320.46 183.34 310.23H184.52Z" stroke="black" stroke-miterlimit="10"/>
<path d="M700.32 256.7V403.13C700.32 404.34 699.33 405.33 698.12 405.33H624.06C626.69 390.23 628.06 374.69 628.06 358.84C628.06 352.14 627.81 345.5 627.33 338.92C626.63 329.2 625.4 319.63 623.69 310.23C621.8 299.86 619.32 289.7 616.27 279.78C616.17 279.42 616.05 279.06 615.94 278.7C615.68 277.88 615.43 277.06 615.16 276.24C615.08 275.98 615 275.72 614.92 275.47H345.71C331.85 275.47 319.05 279.95 308.66 287.54C300.58 293.44 293.97 301.21 289.45 310.23C285.21 318.69 282.82 328.25 282.82 338.36V345.52H434.5V398.49C434.5 400.8 434.4 403.08 434.19 405.33H169.94C168.73 405.33 167.74 404.34 167.74 403.13V384.69C167.74 376.71 168.25 368.85 169.23 361.14C169.28 360.74 169.33 360.34 169.39 359.94C170.23 353.95 171.39 348.06 172.84 342.29C175.66 331.12 179.59 320.39 184.52 310.23H183.34C188.78 297.88 195.54 286.23 203.43 275.47C206.62 271.12 210 266.9 213.56 262.85C231.4 242.49 253.64 226.09 278.8 215.12C288.36 210.95 298.34 207.56 308.66 205.05C322.76 201.6 337.49 199.78 352.65 199.78H643.39C658.41 199.78 672.08 205.6 682.25 215.12C686.08 218.68 689.41 222.77 692.13 227.27C692.13 227.28 692.14 227.28 692.14 227.29C692.14 227.29 692.14 227.31 692.14 227.32H692.15C692.57 228.4 692.98 229.47 693.4 230.55C694.03 232.2 694.65 233.85 695.26 235.51C696.49 238.89 697.68 242.29 698.82 245.72C699.12 246.61 699.41 247.5 699.7 248.39C700.1 251.1 700.31 253.88 700.31 256.7H700.32Z" fill="black" stroke="black" stroke-miterlimit="10"/>
<path d="M699.71 248.39C699.42 247.5 699.13 246.61 698.83 245.72C697.69 242.29 696.5 238.89 695.27 235.51C694.66 233.85 694.04 232.2 693.41 230.55C692.99 229.47 692.58 228.4 692.16 227.33C695.99 233.65 698.6 240.77 699.71 248.39Z" stroke="black" stroke-miterlimit="10"/>
</svg>
